<?xml version="1.0" standalone="no"?><!DOCTYPE svg PUBLIC "-//W3C//DTD SVG 1.1//EN" "http://www.w3.org/Graphics/SVG/1.1/DTD/svg11.dtd"><svg class="icon" width="128px" height="128.00px" viewBox="0 0 1024 1024" version="1.1" xmlns="http://www.w3.org/2000/svg"><path fill="#ffffff" d="M681.319 966.181c-29.171 0-45.189-12.014-53.771-22.308-16.589-20.021-21.165-29.744-21.165-62.349v-237.387c0-19.449-1.716-24.595-2.86-25.741 0 0-3.434-1.716-13.155-1.716h-148.724c-24.595 0-28.603 1.716-28.603 30.89v233.382c0 32.605-4.003 41.757-21.165 62.349-8.579 10.297-24.595 22.308-53.771 22.308h-88.662c-23.453-0.571-39.47-6.293-53.197-18.876-9.726-8.579-25.169-28.028-25.169-58.917 0-55.484 0-111.542 0.571-167.029 0-46.333 0.571-93.237 0.571-140.144-16.589 0-33.75 0-50.91-0.571h-2.288c-42.33-1.716-50.91-25.169-50.91-65.78 0-40.039 10.868-53.771 24.595-67.498 76.651-76.077 155.59-151.011 232.812-224.231 37.754-35.465 76.077-72.646 114.403-108.683 4.003-4.003 7.438-7.438 10.868-10.297 21.165-20.592 35.465-34.319 56.058-37.182 2.288 0 4.576 0 6.863 0 20.592 2.288 34.319 16.016 56.058 37.182 3.434 3.434 6.863 6.863 10.868 10.297 37.754 36.607 76.651 73.219 114.403 108.683 76.651 72.646 156.159 148.154 232.812 224.231 14.299 13.728 24.595 28.028 24.595 67.498 0 40.039-8.579 64.066-50.91 65.78h-2.288c-17.163 0.571-34.319 0.571-50.91 0.571 0 46.906 0 93.237 0.571 140.144 0 56.058 0.571 111.542 0.571 167.029 0 30.89-16.016 50.335-25.169 58.917-13.728 13.155-29.744 18.876-52.627 18.876l-90.379 0.571zM189.956 524.014c4.003 0 7.438 0 11.439 0 15.443 0 28.028 12.585 28.028 28.603 0 56.058 0 112.689-0.571 168.743 0 56.058-0.571 111.542-0.571 167.029 0 6.863 2.288 13.155 7.438 17.731 2.288 1.716 4.003 3.434 14.873 4.003h88.089c6.863 0 9.726-1.716 10.297-1.716 8.011-9.151 8.011-9.151 8.011-25.741v-233.382c0-58.917 28.028-88.089 85.232-88.089h148.724c72.646 0 72.646 58.917 72.646 84.086v237.387c0 16.589 0 16.589 8.011 25.741 0.571 0.571 2.86 1.716 10.297 1.716h88.662c10.297 0 12.585-1.716 14.299-4.003 5.149-4.576 7.438-10.297 7.438-17.731 0-55.484 0-110.973-0.571-167.029 0-56.058-0.571-112.115-0.571-168.743 0-15.443 12.585-28.028 28.028-28.603 8.579 0 17.731 0 26.313 0 17.163 0 33.179 0 49.193-0.571 0-2.288 0-5.721 0-9.151 0-19.449-1.716-21.165-8.011-27.457-76.077-75.506-155.015-150.441-231.666-223.088-37.754-35.465-76.651-72.646-114.403-109.255-4.003-4.003-7.438-7.438-10.868-10.868-6.863-6.863-14.299-14.299-19.449-18.307-5.149 4.003-12.585 11.439-19.449 18.307-3.434 3.434-6.863 6.863-10.868 10.868-37.754 36.607-76.651 73.219-114.403 109.255-76.651 72.646-155.59 147.58-231.666 223.088-6.293 6.293-8.011 8.011-8.011 27.457 0 4.003 0 6.863 0 9.151 16.016 0.571 32.034 0.571 49.193 0.571 5.149 0 10.297 0 14.873 0z" /></svg>